<svg width="25" height="25" viewBox="0 0 25 25" fill="none" xmlns="http://www.w3.org/2000/svg">
<path d="M21.3368 3.66315C16.4531 -1.22066 8.54766 -1.22144 3.66317 3.66315C-1.22069 8.54696 -1.22142 16.4523 3.66317 21.3369C8.54688 26.2207 16.4523 26.2214 21.3368 21.3369C26.2207 16.4531 26.2214 8.54769 21.3368 3.66315ZM20.8145 19.5554C20.2306 19.0333 19.606 18.5712 18.9477 18.173C19.3828 16.6699 19.6406 15.0158 19.7015 13.2964H23.3757C23.2096 15.614 22.3191 17.7881 20.8145 19.5554ZM1.62421 13.2964H5.2984C5.35934 15.0158 5.61714 16.6699 6.05228 18.173C5.39393 18.5712 4.76934 19.0333 4.18544 19.5554C2.68081 17.7881 1.79038 15.614 1.62421 13.2964ZM4.18549 5.44461C4.76939 5.96674 5.39398 6.42881 6.05233 6.82702C5.61719 8.33014 5.35939 9.98421 5.29845 11.7036H1.62421C1.79038 9.38607 2.68081 7.21201 4.18549 5.44461ZM11.7036 6.99164C10.4048 6.89874 9.15244 6.57884 7.99142 6.05109C8.66665 4.31233 9.91144 2.22687 11.7036 1.71006V6.99164ZM11.7036 8.58741V11.7037H6.89188C6.94701 10.2492 7.15309 8.85252 7.49583 7.57461C8.81521 8.15138 10.2342 8.49583 11.7036 8.58741ZM11.7036 13.2964V16.4127C10.2342 16.5042 8.81521 16.8487 7.49583 17.4255C7.15309 16.1475 6.94701 14.7509 6.89188 13.2964H11.7036ZM11.7036 18.0084V23.29C9.91153 22.7731 8.66675 20.6879 7.99142 18.949C9.15244 18.4212 10.4048 18.1013 11.7036 18.0084ZM13.2964 18.0084C14.5952 18.1013 15.8476 18.4212 17.0086 18.949C16.3333 20.6878 15.0886 22.7731 13.2964 23.29V18.0084ZM13.2964 16.4127V13.2964H18.1081C18.053 14.7509 17.8469 16.1475 17.5042 17.4255C16.1848 16.8487 14.7658 16.5042 13.2964 16.4127ZM13.2964 11.7037V8.58741C14.7658 8.49583 16.1848 8.15138 17.5042 7.57461C17.8469 8.85252 18.053 10.2492 18.1081 11.7037H13.2964ZM13.2964 6.99164V1.7101C15.0886 2.22692 16.3333 4.31238 17.0086 6.05114C15.8476 6.57884 14.5952 6.89874 13.2964 6.99164ZM16.8735 2.50521C17.893 2.95162 18.844 3.55694 19.6966 4.30799C19.2908 4.6658 18.8626 4.99024 18.4154 5.28039C18.0183 4.2972 17.5111 3.34173 16.8735 2.50521ZM6.58451 5.28039C6.13737 4.99024 5.7092 4.6658 5.30333 4.30799C6.15591 3.55694 7.10699 2.95162 8.12642 2.50521C7.48885 3.34183 6.9816 4.2973 6.58451 5.28039ZM6.58456 19.7197C6.9816 20.7028 7.48895 21.6583 8.12647 22.4949C7.10704 22.0484 6.15596 21.4431 5.30338 20.6921C5.7092 20.3343 6.13742 20.0098 6.58456 19.7197ZM18.4154 19.7197C18.8626 20.0098 19.2908 20.3343 19.6966 20.692C18.844 21.4431 17.893 22.0484 16.8735 22.4948C17.511 21.6584 18.0183 20.7029 18.4154 19.7197ZM19.7016 11.7037C19.6407 9.98426 19.3829 8.33014 18.9477 6.82707C19.6061 6.42886 20.2306 5.96679 20.8145 5.44466C22.3192 7.21201 23.2096 9.38607 23.3758 11.7037H19.7016Z" fill="black"/>
</svg>
