<svg width="12" height="12" viewBox="0 0 12 12" fill="none" xmlns="http://www.w3.org/2000/svg">
<path fill-rule="evenodd" clip-rule="evenodd" d="M3.83557 0.7815C4.39541 0.755727 4.57391 0.75 6 0.75C7.42609 0.75 7.60459 0.756205 8.16395 0.7815C8.72332 0.806795 9.10514 0.896045 9.43923 1.02539C9.78907 1.15759 10.1065 1.36425 10.369 1.63152C10.6362 1.89355 10.8424 2.21045 10.9741 2.56077C11.104 2.89486 11.1927 3.27668 11.2185 3.83509C11.2443 4.39589 11.25 4.57439 11.25 6C11.25 7.42609 11.2438 7.60459 11.2185 8.16443C11.1932 8.72284 11.104 9.10466 10.9741 9.43875C10.8424 9.78911 10.6359 10.1065 10.369 10.369C10.1065 10.6362 9.78907 10.8424 9.43923 10.9741C9.10514 11.104 8.72332 11.1927 8.16491 11.2185C7.60459 11.2443 7.42609 11.25 6 11.25C4.57391 11.25 4.39541 11.2438 3.83557 11.2185C3.27716 11.1932 2.89534 11.104 2.56125 10.9741C2.21089 10.8424 1.89346 10.6359 1.63105 10.369C1.36395 10.1068 1.15726 9.78949 1.02539 9.43923C0.896045 9.10514 0.807273 8.72332 0.7815 8.16491C0.755727 7.60411 0.75 7.42561 0.75 6C0.75 4.57391 0.756205 4.39541 0.7815 3.83605C0.806795 3.27668 0.896045 2.89486 1.02539 2.56077C1.15746 2.21049 1.36431 1.89322 1.63152 1.63105C1.89356 1.36401 2.21068 1.15733 2.56077 1.02539C2.89486 0.896045 3.27668 0.807273 3.83509 0.7815H3.83557ZM8.12148 1.7265C7.56784 1.7012 7.40175 1.69595 6 1.69595C4.59825 1.69595 4.43216 1.7012 3.87852 1.7265C3.36641 1.74989 3.08864 1.83532 2.90345 1.90739C2.65861 2.00284 2.48345 2.11595 2.2997 2.2997C2.12552 2.46916 1.99147 2.67545 1.90739 2.90345C1.83532 3.08864 1.74989 3.36641 1.7265 3.87852C1.7012 4.43216 1.69595 4.59825 1.69595 6C1.69595 7.40175 1.7012 7.56784 1.7265 8.12148C1.74989 8.63359 1.83532 8.91136 1.90739 9.09655C1.99139 9.3242 2.1255 9.53086 2.2997 9.7003C2.46914 9.8745 2.6758 10.0086 2.90345 10.0926C3.08864 10.1647 3.36641 10.2501 3.87852 10.2735C4.43216 10.2988 4.59777 10.304 6 10.304C7.40223 10.304 7.56784 10.2988 8.12148 10.2735C8.63359 10.2501 8.91136 10.1647 9.09655 10.0926C9.34139 9.99716 9.51655 9.88405 9.7003 9.7003C9.8745 9.53086 10.0086 9.3242 10.0926 9.09655C10.1647 8.91136 10.2501 8.63359 10.2735 8.12148C10.2988 7.56784 10.304 7.40175 10.304 6C10.304 4.59825 10.2988 4.43216 10.2735 3.87852C10.2501 3.36641 10.1647 3.08864 10.0926 2.90345C9.99716 2.65861 9.88405 2.48345 9.7003 2.2997C9.53083 2.12553 9.32454 1.99149 9.09655 1.90739C8.91136 1.83532 8.63359 1.74989 8.12148 1.7265ZM5.32943 7.61843C5.70393 7.77432 6.12093 7.79536 6.50922 7.67796C6.8975 7.56055 7.23298 7.31198 7.45836 6.97471C7.68374 6.63743 7.78503 6.23237 7.74493 5.82871C7.70484 5.42505 7.52584 5.04783 7.23852 4.76148C7.05536 4.57843 6.8339 4.43827 6.59007 4.35109C6.34624 4.26391 6.08611 4.23188 5.82842 4.25729C5.57072 4.28271 5.32187 4.36495 5.09977 4.49808C4.87767 4.63122 4.68786 4.81195 4.54399 5.02725C4.40012 5.24255 4.30577 5.48707 4.26775 5.74321C4.22972 5.99935 4.24896 6.26073 4.32408 6.50854C4.39919 6.75635 4.52832 6.98443 4.70216 7.17634C4.876 7.36826 5.09023 7.51925 5.32943 7.61843ZM4.09186 4.09186C4.34244 3.84128 4.63993 3.64251 4.96732 3.5069C5.29472 3.37129 5.64563 3.30149 6 3.30149C6.35437 3.30149 6.70528 3.37129 7.03268 3.5069C7.36007 3.64251 7.65756 3.84128 7.90814 4.09186C8.15872 4.34244 8.35749 4.63993 8.4931 4.96732C8.62871 5.29472 8.69851 5.64563 8.69851 6C8.69851 6.35437 8.62871 6.70528 8.4931 7.03268C8.35749 7.36007 8.15872 7.65756 7.90814 7.90814C7.40207 8.41421 6.71569 8.69851 6 8.69851C5.28431 8.69851 4.59793 8.41421 4.09186 7.90814C3.58579 7.40207 3.30149 6.71569 3.30149 6C3.30149 5.28431 3.58579 4.59793 4.09186 4.09186ZM9.297 3.70336C9.3591 3.64479 9.40881 3.57435 9.44319 3.49621C9.47757 3.41808 9.49593 3.33384 9.49718 3.24849C9.49842 3.16313 9.48253 3.0784 9.45043 2.9993C9.41834 2.92019 9.37071 2.84833 9.31034 2.78797C9.24998 2.72761 9.17812 2.67998 9.09902 2.64788C9.01992 2.61579 8.93518 2.5999 8.84983 2.60114C8.76447 2.60239 8.68024 2.62074 8.6021 2.65513C8.52397 2.68951 8.45353 2.73922 8.39495 2.80132C8.28103 2.92208 8.21866 3.08249 8.22108 3.24849C8.22351 3.41449 8.29052 3.57301 8.40792 3.6904C8.52531 3.80779 8.68383 3.87481 8.84983 3.87723C9.01583 3.87965 9.17624 3.81728 9.297 3.70336Z" fill="white"/>
</svg>
