<svg width="21" height="25" viewBox="0 0 21 25" fill="none" xmlns="http://www.w3.org/2000/svg">
<path fill-rule="evenodd" clip-rule="evenodd" d="M10.4653 6.42561e-05C14.0329 6.42561e-05 16.9428 2.82084 17.0861 6.35329L17.0916 6.62639V8.59625C19.3123 9.36708 20.9063 11.4776 20.9063 13.9612V19.3224C20.9063 22.4586 18.3645 25 15.2288 25H5.67752C2.54185 25 0 22.4586 0 19.3224V13.9612C0 11.4774 1.59434 9.36669 3.81532 8.59604L3.81533 6.59729C3.83134 2.93728 6.81015 -0.0158795 10.4653 6.42561e-05ZM15.2166 6.62639V8.28366H5.69032V6.60139L5.69757 6.35725C5.83576 3.85071 7.91952 1.86398 10.4612 1.87506C13.0888 1.87507 15.2166 4.00288 15.2166 6.62639ZM15.2288 10.1587H5.67752C3.57731 10.1587 1.87501 11.8607 1.87501 13.9612V19.3224C1.87501 21.423 3.57731 23.125 5.67752 23.125H15.2288C17.329 23.125 19.0313 21.423 19.0313 19.3224V13.9612C19.0313 11.8607 17.329 10.1587 15.2288 10.1587ZM11.3823 15.1266C11.3202 14.669 10.928 14.3163 10.4534 14.3163C9.9356 14.3163 9.51586 14.736 9.51586 15.2538V18.0301L9.52442 18.1573C9.5865 18.6149 9.97875 18.9676 10.4534 18.9676C10.9711 18.9676 11.3909 18.5478 11.3909 18.0301V15.2538L11.3823 15.1266Z" fill="#200E32"/>
</svg>
