<svg width="20" height="15" viewBox="0 0 20 15" fill="none" xmlns="http://www.w3.org/2000/svg">
<path d="M18.5714 0H1.42857C1.04969 0 0.686328 0.15051 0.418419 0.418419C0.15051 0.686328 0 1.04969 0 1.42857V12.8571C0 13.236 0.15051 13.5994 0.418419 13.8673C0.686328 14.1352 1.04969 14.2857 1.42857 14.2857H18.5714C18.9503 14.2857 19.3137 14.1352 19.5816 13.8673C19.8495 13.5994 20 13.236 20 12.8571V1.42857C20 1.04969 19.8495 0.686328 19.5816 0.418419C19.3137 0.15051 18.9503 0 18.5714 0ZM17 1.42857L10 6.27143L3 1.42857H17ZM1.42857 12.8571V2.07857L9.59286 7.72857C9.71243 7.81152 9.85448 7.85597 10 7.85597C10.1455 7.85597 10.2876 7.81152 10.4071 7.72857L18.5714 2.07857V12.8571H1.42857Z" fill="white"/>
</svg>
