<svg width="20" height="20" viewBox="0 0 20 20" fill="none" xmlns="http://www.w3.org/2000/svg">
<path fill-rule="evenodd" clip-rule="evenodd" d="M4.47044 0.00172603L4.49706 0.00344441C5.02095 0.0468663 5.47597 0.307216 5.89133 0.713048C6.68068 1.48398 8.37566 3.73367 8.50363 4.3459C8.64526 5.02891 8.49383 5.47252 8.04241 6.25724L7.93299 6.45064C7.72584 6.82898 7.69417 6.98521 7.75831 7.16409C8.74394 9.57632 10.4259 11.258 12.8106 12.232C13.0364 12.3138 13.2069 12.2669 13.6842 11.9931L13.9332 11.8522C14.6042 11.4842 15.0294 11.3679 15.6565 11.4985C16.2666 11.6264 18.5176 13.3224 19.2873 14.1108C19.6926 14.5257 19.9535 14.9816 19.999 15.5399C20.0469 16.8972 18.3908 18.8082 17.3805 19.3828C16.2317 20.2046 14.7737 20.191 13.139 19.4301C8.86409 17.6513 2.325 11.1539 0.582383 6.88432L0.478067 6.64549C-0.183628 5.06399 -0.16929 3.69766 0.588982 2.66758C1.28088 1.52176 3.14635 -0.0595114 4.47044 0.00172603ZM4.38961 1.4639L4.30145 1.46842C3.62186 1.55871 2.25902 2.732 1.80516 3.47827L1.72675 3.59495C1.33577 4.23198 1.38109 5.1068 1.92543 6.30463L2.02946 6.54815C3.78499 10.4881 9.86331 16.4821 13.7283 18.0911L13.9412 18.1858C15.0595 18.6598 15.906 18.6387 16.5913 18.1527L16.642 18.1201C16.8541 17.9728 17.3431 17.5284 17.7198 17.0938C18.2489 16.4833 18.5486 15.9239 18.5389 15.6261C18.5283 15.4987 18.4301 15.327 18.2407 15.1331C17.6685 14.5471 15.5874 12.979 15.3574 12.9308C15.1399 12.8855 14.9613 12.9464 14.4732 13.2272L14.2276 13.3652C13.5084 13.753 13.0014 13.8573 12.2851 13.5972C9.5091 12.4642 7.53831 10.4937 6.39327 7.68974C6.12205 6.94003 6.26805 6.40961 6.7397 5.58756L6.85208 5.38986C7.06634 5.00298 7.11168 4.83884 7.07131 4.64413C7.02297 4.41287 5.45589 2.33294 4.86907 1.75981C4.67475 1.56996 4.50401 1.47226 4.37622 1.46167L4.38961 1.4639Z" fill="white"/>
</svg>
