<svg width="12" height="10" viewBox="0 0 12 10" fill="none" xmlns="http://www.w3.org/2000/svg">
<path d="M11.25 1.56756C10.8639 1.74797 10.4491 1.86986 10.013 1.92496C10.4629 1.64109 10.7996 1.19431 10.9601 0.66798C10.5373 0.932731 10.0747 1.11909 9.59218 1.21895C9.26773 0.853682 8.83798 0.61158 8.36966 0.530226C7.90133 0.448873 7.42064 0.532819 7.0022 0.769032C6.58377 1.00525 6.251 1.38051 6.05556 1.83656C5.86013 2.29262 5.81296 2.80394 5.92139 3.29116C5.06482 3.24581 4.22686 3.01107 3.4619 2.60216C2.69694 2.19326 2.02208 1.61933 1.48111 0.917621C1.29613 1.25405 1.18977 1.64411 1.18977 2.05953C1.18957 2.4335 1.27691 2.80175 1.44406 3.13159C1.6112 3.46143 1.85298 3.74268 2.14793 3.95037C1.80586 3.93889 1.47134 3.84143 1.1722 3.66611V3.69536C1.17217 4.21987 1.34424 4.72824 1.65923 5.13421C1.97421 5.54017 2.41271 5.81874 2.90031 5.92263C2.58298 6.01318 2.25029 6.02651 1.92735 5.96163C2.06493 6.41294 2.33291 6.80759 2.69378 7.09034C3.05464 7.37309 3.49034 7.52977 3.93986 7.53846C3.17677 8.17008 2.23436 8.51269 1.26423 8.51118C1.09238 8.51123 0.920673 8.50065 0.75 8.47949C1.73474 9.14707 2.88105 9.50137 4.05177 9.5C8.01482 9.5 10.1813 6.03916 10.1813 3.03762C10.1813 2.9401 10.179 2.84161 10.1748 2.74409C10.5963 2.42277 10.96 2.02486 11.2491 1.56903L11.25 1.56756Z" fill="white"/>
</svg>
