<svg width="27" height="25" viewBox="0 0 27 25" fill="none" xmlns="http://www.w3.org/2000/svg">
<path fill-rule="evenodd" clip-rule="evenodd" d="M7.64742 0H18.6684C22.8919 0 26.3158 3.50152 26.3158 7.82072V8.79456L26.3161 8.81896L26.3158 8.84336V15.8132L26.3161 15.8376L26.3158 15.862V17.1793C26.3158 21.4985 22.8919 25 18.6684 25H7.64742C3.42393 25 0 21.4985 0 17.1793V7.82072C0 3.50152 3.42393 0 7.64742 0ZM24.4032 7.82071V7.84099H20.1979L19.9571 7.84777C17.645 7.9769 15.8089 9.93307 15.8089 12.3283C15.8104 14.8067 17.7742 16.814 20.1973 16.8156H24.4032V17.1793C24.4032 20.4182 21.8356 23.0441 18.6684 23.0441H7.64747C4.48028 23.0441 1.91265 20.4182 1.91265 17.1793V7.82071C1.91265 4.58175 4.48028 1.95594 7.64747 1.95594H18.6684C21.8356 1.95594 24.4032 4.58175 24.4032 7.82071ZM20.1985 9.79693L24.4032 9.79693V14.8596H20.1979L20.0044 14.8519C18.7275 14.7503 17.7223 13.6594 17.7215 12.3277C17.7215 10.9308 18.8302 9.79779 20.1985 9.79693ZM21.7382 12.248C21.7382 11.7078 21.31 11.27 20.7819 11.27H20.3844L20.2547 11.2789C19.7879 11.3437 19.4281 11.7528 19.4281 12.248C19.4281 12.7881 19.8563 13.2259 20.3844 13.2259H20.7819L20.9116 13.217C21.3784 13.1522 21.7382 12.7431 21.7382 12.248ZM14.5799 6.89555C14.5799 6.35543 14.1517 5.91758 13.6236 5.91758H6.73954L6.60978 5.92651C6.14301 5.99126 5.78324 6.40044 5.78324 6.89555C5.78324 7.43567 6.21139 7.87352 6.73954 7.87352H13.6236L13.7533 7.86459C14.2201 7.79983 14.5799 7.39066 14.5799 6.89555Z" fill="black"/>
</svg>
